HIERARCHY
ROOT Hips
{
 OFFSET 0.000000 0.000000 0.000000
 CHANNELS 6 Xposition Yposition Zposition Yrotation Xrotation Zrotation
 JOINT Chest
 {
  OFFSET 0.000000 9.585900 0.002600
  CHANNELS 3 Yrotation Xrotation Zrotation
  JOINT Chest2
  {
   OFFSET 0.000000 9.601200 -0.005300
   CHANNELS 3 Yrotation Xrotation Zrotation
   JOINT Chest3
   {
    OFFSET 0.000000 9.561800 0.000000
    CHANNELS 3 Yrotation Xrotation Zrotation
    JOINT Chest4
    {
     OFFSET 0.000000 9.552100 0.000000
     CHANNELS 3 Yrotation Xrotation Zrotation
     JOINT Neck
     {
      OFFSET 0.000000 14.453000 0.000000
      CHANNELS 3 Yrotation Xrotation Zrotation
      JOINT Head
      {
       OFFSET 0.000000 8.936500 -0.011300
       CHANNELS 3 Yrotation Xrotation Zrotation
       End Site
       {
        OFFSET 0.000000 17.073600 -0.006000
       }
      }
     }
     JOINT RightCollar
     {
      OFFSET -2.921100 9.558500 0.000000
      CHANNELS 3 Yrotation Xrotation Zrotation
      JOINT RightShoulder
      {
       OFFSET -13.519700 0.000000 0.000000
       CHANNELS 3 Yrotation Xrotation Zrotation
       JOINT RightElbow
       {
        OFFSET 0.000000 -29.696600 0.000000
        CHANNELS 3 Yrotation Xrotation Zrotation
        JOINT RightWrist
        {
         OFFSET 0.000000 -24.004700 0.000000
         CHANNELS 3 Yrotation Xrotation Zrotation
         End Site
         {
          OFFSET 0.000000 -17.728500 0.000000
         }
        }
       }
      }
     }
     JOINT LeftCollar
     {
      OFFSET 2.921100 9.558500 0.000000
      CHANNELS 3 Yrotation Xrotation Zrotation
      JOINT LeftShoulder
      {
       OFFSET 13.519700 0.000000 0.000000
       CHANNELS 3 Yrotation Xrotation Zrotation
       JOINT LeftElbow
       {
        OFFSET 0.000000 -29.696600 0.000000
        CHANNELS 3 Yrotation Xrotation Zrotation
        JOINT LeftWrist
        {
         OFFSET 0.000000 -24.004700 0.000000
         CHANNELS 3 Yrotation Xrotation Zrotation
         End Site
         {
          OFFSET 0.000000 -17.728500 0.000000
         }
        }
       }
      }
     }
    }
   }
  }
 }
 JOINT RightHip
 {
  OFFSET -7.771700 -0.012900 -0.001300
  CHANNELS 3 Yrotation Xrotation Zrotation
  JOINT RightKnee
  {
   OFFSET 0.000000 -40.869800 0.001200
   CHANNELS 3 Yrotation Xrotation Zrotation
   JOINT RightAnkle
   {
    OFFSET 0.000000 -39.717900 0.002100
    CHANNELS 3 Yrotation Xrotation Zrotation
    JOINT RightToe
    {
     OFFSET 0.000000 -4.965400 11.033500
     CHANNELS 3 Yrotation Xrotation Zrotation
     End Site
     {
      OFFSET 0.000000 -1.423100 5.872300
     }
    }
   }
  }
 }
 JOINT LeftHip
 {
  OFFSET 7.771700 -0.012900 -0.001300
  CHANNELS 3 Yrotation Xrotation Zrotation
  JOINT LeftKnee
  {
   OFFSET 0.000000 -40.869800 0.001200
   CHANNELS 3 Yrotation Xrotation Zrotation
   JOINT LeftAnkle
   {
    OFFSET 0.000000 -39.717900 0.002100
    CHANNELS 3 Yrotation Xrotation Zrotation
    JOINT LeftToe
    {
     OFFSET 0.000000 -4.965400 11.033500
     CHANNELS 3 Yrotation Xrotation Zrotation
     End Site
     {
      OFFSET 0.000000 -1.423100 5.872300
     }
    }
   }
  }
 }
}
MOTION
Frames: 11
Frame Time: 0.008333
-90.822000 57.733919 0.269752 162.159070 -4.712244 -0.450177 1.453035 5.256085 0.512885 0.040189 0.166527 0.001428 0.070910 0.302040 0.002014 1.218227 5.016025 0.095796 -0.224738 18.327875 1.409996 -0.868948 -1.742196 2.662364 -4.499223 4.427299 -3.256863 -21.796905 -6.758491 -1.474393 -79.514771 -60.428856 86.868937 -12.582092 -4.111262 -26.602209 2.366435 5.548107 3.240246 26.101065 0.081880 -5.196169 71.114884 -58.889496 -89.941254 6.306861 -0.777378 15.699256 -16.353930 -66.972766 10.194643 -33.633560 73.558442 -34.189935 -2.553862 -7.518407 -1.335081 -0.019286 0.496316 -0.047701 2.260091 -69.744978 15.008017 47.586094 67.792872 39.517880 -18.078791 -10.791834 4.155670 -0.333842 -0.573940 -0.134539
-90.821253 57.728530 0.270908 162.144462 -4.728632 -0.450344 1.467979 5.248324 0.517915 0.041279 0.172364 -0.000044 0.070977 0.314936 0.000729 1.232288 4.977955 0.102546 -0.238588 18.353858 1.408997 -0.893495 -1.693735 2.664659 -4.531219 4.485381 -3.276918 -21.784289 -6.760352 -1.461917 -79.377975 -60.436098 86.727494 -12.537594 -4.082090 -26.573910 2.426494 5.621512 3.330254 26.031362 0.112793 -5.267290 71.053772 -58.868938 -89.849696 6.299264 -0.829669 15.616218 -16.355679 -66.964568 10.194421 -33.592486 73.581313 -34.133483 -2.556231 -7.524400 -1.354014 -0.013440 0.496861 -0.043192 2.297858 -69.733014 14.999301 47.595542 67.798609 39.520983 -18.079829 -10.793772 4.165849 -0.317572 -0.572968 -0.132409
-90.819628 57.722918 0.270836 162.126977 -4.749953 -0.453785 1.479686 5.244697 0.529308 0.047484 0.190508 -0.005918 0.072088 0.293301 0.002645 1.229703 4.963532 0.118294 -0.256533 18.378157 1.407479 -0.925371 -1.648382 2.667382 -4.607811 4.547951 -3.369178 -21.713463 -6.665308 -1.406291 -79.356144 -60.435412 86.704323 -12.500041 -4.083819 -26.534453 2.529982 5.691549 3.450942 25.923528 0.174206 -5.379801 70.955342 -58.849366 -89.703274 6.284469 -0.913706 15.508066 -16.355492 -66.951259 10.200363 -33.579574 73.598433 -34.118018 -2.535710 -7.526203 -1.349963 -0.029305 0.494987 -0.050120 2.332048 -69.716626 14.998842 47.608657 67.805273 39.526951 -18.059145 -10.793827 4.170317 -0.293488 -0.573671 -0.123337
-90.815278 57.717144 0.271271 162.108836 -4.770785 -0.474235 1.489843 5.247645 0.558359 0.054344 0.180439 -0.006926 0.071963 0.291215 0.003418 1.211226 4.968790 0.138931 -0.280247 18.394237 1.407072 -0.968396 -1.617953 2.674041 -4.693765 4.565158 -3.524128 -21.615722 -6.564701 -1.304548 -79.201243 -60.417370 86.526898 -12.467097 -4.112200 -26.484689 2.674638 5.741258 3.610983 25.728137 0.353444 -5.517751 70.988515 -58.834819 -89.654285 6.312261 -1.087464 15.286728 -16.382806 -66.930107 10.239534 -33.550504 73.616169 -34.060505 -2.559863 -7.536312 -1.378848 0.002478 0.497509 -0.041283 2.355577 -69.701436 15.035287 47.573603 67.823001 39.492274 -18.107394 -10.796038 4.178854 -0.307198 -0.555302 -0.121612
-90.817341 57.711156 0.270952 162.099278 -4.783121 -0.458162 1.493436 5.254977 0.545882 0.040366 0.163833 0.002363 0.071485 0.290430 0.004310 1.188872 5.002511 0.161033 -0.313631 18.396788 1.409251 -1.030287 -1.612224 2.688707 -4.757176 4.514971 -3.730067 -21.463658 -6.381918 -1.178828 -79.069363 -60.379848 86.316047 -12.437505 -4.159677 -26.444999 2.856313 5.759528 3.819564 25.511045 0.525932 -5.709802 70.877061 -58.797389 -89.444803 6.339223 -1.283919 15.053799 -16.340766 -66.928646 10.199662 -33.550672 73.624699 -34.058377 -2.557308 -7.550140 -1.377219 -0.005154 0.508825 -0.040525 2.414372 -69.689464 14.990981 47.595050 67.821730 39.502677 -18.127834 -10.781900 4.188769 -0.314023 -0.563965 -0.122650
-90.816343 57.705298 0.271922 162.087425 -4.795133 -0.462366 1.481815 5.261957 0.565665 0.005169 0.182801 0.027183 0.069283 0.296193 0.006400 1.185164 5.036459 0.158615 -0.359819 18.383048 1.416319 -1.117700 -1.636327 2.716811 -4.794679 4.392261 -4.006200 -21.231478 -6.088408 -1.014426 -79.012267 -60.321172 86.103432 -12.423379 -4.223867 -26.438463 3.065659 5.750250 4.081194 25.242251 0.743511 -5.944420 70.777785 -58.735412 -89.211865 6.387070 -1.510957 14.766405 -16.345264 -66.923842 10.213081 -33.546603 73.637177 -34.045496 -2.564343 -7.554033 -1.386288 0.001722 0.508763 -0.035731 2.451749 -69.683985 14.987493 47.565794 67.834596 39.479878 -18.162583 -10.764289 4.185663 -0.294997 -0.572534 -0.111786
-90.818156 57.699983 0.269174 162.079087 -4.827180 -0.444766 1.416879 5.336196 0.590964 0.037923 0.170911 0.004352 0.067390 0.302643 0.007731 1.142082 5.095128 0.177634 -0.422751 18.350779 1.432539 -1.239390 -1.694119 2.767547 -4.787812 4.195438 -4.346910 -20.927939 -5.724809 -0.810661 -78.952548 -60.238592 85.795507 -12.432059 -4.300506 -26.481200 3.278167 5.725518 4.395257 24.938178 1.002706 -6.218957 70.719158 -58.644828 -88.980250 6.454517 -1.745578 14.439662 -16.305700 -66.915243 10.155120 -33.513681 73.677780 -34.007363 -2.549447 -7.554313 -1.386775 -0.020854 0.495967 -0.042457 2.545963 -69.657134 14.921348 47.563077 67.849576 39.465715 -18.148396 -10.734432 4.187561 -0.268148 -0.570452 -0.100017
-90.819088 57.695413 0.265102 162.085729 -4.875339 -0.431731 1.363313 5.423210 0.599323 0.063049 0.151225 -0.007918 0.039024 0.337131 0.022220 1.091591 5.177987 0.196466 -0.508601 18.295745 1.461223 -1.407748 -1.793176 2.848986 -4.726522 3.930152 -4.737643 -20.508196 -5.279429 -0.582057 -78.976752 -60.137306 85.427938 -12.469747 -4.386908 -26.580567 3.463357 5.691699 4.755185 24.622246 1.300427 -6.524689 70.694892 -58.523797 -88.750850 6.536762 -1.983197 14.096901 -16.258143 -66.880779 10.081179 -33.520453 73.703063 -33.996258 -2.542345 -7.575862 -1.404553 -0.016655 0.500089 -0.034498 2.621874 -69.613107 14.864464 47.622051 67.853246 39.494424 -18.170578 -10.725837 4.232488 -0.294314 -0.566413 -0.116116
-90.817844 57.692027 0.258866 162.099189 -4.950112 -0.428457 1.295655 5.547153 0.616284 0.050662 0.169573 -0.000686 0.048327 0.338907 0.017049 1.040008 5.286413 0.213982 -0.622868 18.212318 1.502520 -1.633186 -1.943648 2.963597 -4.608786 3.619895 -5.164196 -19.948774 -4.789643 -0.337669 -79.105001 -60.013504 84.990622 -12.543702 -4.480946 -26.750128 3.598970 5.652324 5.147846 24.307227 1.629516 -6.845218 70.690889 -58.373794 -88.513445 6.632358 -2.229719 13.764902 -16.213896 -66.814575 10.009516 -33.515664 73.728186 -33.979802 -2.538710 -7.596787 -1.416516 -0.020181 0.502411 -0.027073 2.662782 -69.543215 14.835554 47.631416 67.862444 39.492788 -18.183818 -10.705499 4.244999 -0.307179 -0.569756 -0.114946
-90.816502 57.689511 0.257612 162.105785 -5.010350 -0.435234 1.233567 5.665336 0.641707 0.063209 0.156843 -0.004891 0.032899 0.376698 0.023317 0.987131 5.416971 0.229312 -0.767966 18.095846 1.555120 -1.920146 -2.153847 3.110313 -4.440727 3.299323 -5.610781 -19.241555 -4.308530 -0.080083 -79.327555 -59.869518 84.466198 -12.659044 -4.586291 -27.003572 3.673223 5.609999 5.556545 23.993480 1.984006 -7.156017 70.725469 -58.201401 -88.289653 6.744068 -2.476497 13.484341 -16.194891 -66.757527 9.975525 -33.457865 73.757887 -33.897117 -2.577588 -7.621448 -1.451072 0.011305 0.509087 -0.010589 2.687315 -69.491155 14.833719 47.635024 67.873390 39.485989 -18.197296 -10.678142 4.245937 -0.308070 -0.578092 -0.100845
-90.815950 57.689108 0.250408 162.106532 -5.120165 -0.427313 1.176878 5.841422 0.650897 0.047612 0.183862 0.001845 0.045615 0.378341 0.018154 0.934488 5.561280 0.239727 -0.941841 17.945598 1.618172 -2.265045 -2.424798 3.287363 -4.229542 2.994301 -6.056391 -18.405615 -3.878253 0.186935 -79.600886 -59.720144 83.836164 -12.816226 -4.707479 -27.342286 3.682907 5.559916 5.961576 23.675183 2.363285 -7.428878 70.832633 -58.015634 -88.116381 6.869118 -2.709036 13.299531 -16.096153 -66.655477 9.859053 -33.432551 73.771909 -33.860889 -2.567714 -7.628615 -1.452786 -0.001808 0.506604 -0.012965 2.759586 -69.386754 14.787977 47.634752 67.884570 39.479266 -18.208651 -10.654249 4.255575 -0.311989 -0.596343 -0.092016
